<svg xmlns="http://www.w3.org/2000/svg" fill="none" viewBox="0 0 17 20" height="20" width="17">
<g clip-path="url(#clip0_5565_1459)" id="Frame">
<path fill="#111111" d="M7.98058 17.4168V10.2755L1.73058 6.6568V13.4652C1.73058 13.5639 1.75524 13.6563 1.80455 13.7426C1.85386 13.8289 1.92783 13.9029 2.02644 13.9645L7.98058 17.4168ZM8.94212 17.4168L14.8963 13.9645C14.9949 13.9029 15.0688 13.8289 15.1181 13.7426C15.1675 13.6563 15.1921 13.5639 15.1921 13.4652V6.6568L8.94212 10.2755V17.4168ZM7.68472 18.3525L1.54566 14.8151C1.30282 14.6758 1.11267 14.4866 0.975221 14.2474C0.837769 14.0082 0.769043 13.7494 0.769043 13.4708V6.5292C0.769043 6.25062 0.837769 5.99174 0.975221 5.75258C1.11267 5.51342 1.30282 5.32418 1.54566 5.18489L7.68472 1.64754C7.92757 1.50825 8.18644 1.4386 8.46135 1.4386C8.73626 1.4386 8.99513 1.50825 9.23798 1.64754L15.377 5.18489C15.6198 5.32418 15.81 5.51342 15.9475 5.75258C16.0849 5.99174 16.1537 6.25062 16.1537 6.5292V13.4708C16.1537 13.7494 16.0849 14.0082 15.9475 14.2474C15.81 14.4866 15.6198 14.6758 15.377 14.8151L9.23798 18.3525C8.99513 18.4917 8.73626 18.5614 8.46135 18.5614C8.18644 18.5614 7.92757 18.4917 7.68472 18.3525ZM12.0301 7.3798L14.6392 5.87831L8.75721 2.47411C8.6586 2.41246 8.55997 2.38165 8.46135 2.38165C8.36273 2.38165 8.2641 2.41246 8.16549 2.47411L5.8652 3.79622L12.0301 7.3798ZM8.46135 9.44895L11.0575 7.94194L4.87963 4.37129L2.28347 5.87831L8.46135 9.44895Z" id="Vector"></path>
</g>
<defs>
<clipPath id="clip0_5565_1459">
<rect fill="white" height="20" width="16.9231"></rect>
</clipPath>
</defs>
</svg>
